# xmcd
#
# Track frame offsets: 
#        150
#        13552
#        26909
#        36663
#        49567
#        66064
#        78154
#        93366
#
# Disc length: 1392 seconds
#
# Revision: 0
# Processed by: cddbd v1.5.2PL0 Copyright (c) Steve Scherf et al.
# Submitted via: ExactAudioCopyFreeDBPlugin 1.0
#
DISCID=5d056e08
DTITLE=Erik Koskinen - The Mandan Hayseed
DYEAR=2005
DGENRE=Country
TTITLE0=Baby Don't Leave
TTITLE1=You Got It Made
TTITLE2=When The Money Rolls In
TTITLE3=Lonesome Blue
TTITLE4=Working On The Job Too Long
TTITLE5=It's Up To You
TTITLE6=You Didn't Even Remember My Mamma's Name
TTITLE7=Polkabilly Polka
EXTD=
EXTT0=
EXTT1=
EXTT2=
EXTT3=
EXTT4=
EXTT5=
EXTT6=
EXTT7=
PLAYORDER=
